# xmcd
#
# Track frame offsets:
#	150
#	16551
#	31885
#	47612
#	60788
#	74157
#	88209
#	93805
#	113411
#	127887
#	142604
#	159029
#
# Disc length: 2481 seconds
#
# Revision: 0
# Processed by: cddbd v1.5.2PL0 Copyright (c) Steve Scherf et al.
# Submitted via: EasyCDDAExtractor 2011.0.0.0
#
DISCID=7d09af0c
DTITLE=Mats Sannetorp - Sannetorp
DYEAR=2006
DGENRE=Blues
TTITLE0=Hey Honey
TTITLE1=On the Road
TTITLE2=Party Time
TTITLE3=You Gotta Pay
TTITLE4=Showtime
TTITLE5=Hey Woman
TTITLE6=Shrimps
TTITLE7=Make You Mine
TTITLE8=Thank You
TTITLE9=Up on Stage
TTITLE10=Home Sweet Home
TTITLE11=Don't You Cry
EXTD=
EXTT0=
EXTT1=
EXTT2=
EXTT3=
EXTT4=
EXTT5=
EXTT6=
EXTT7=
EXTT8=
EXTT9=
EXTT10=
EXTT11=
PLAYORDER=
